<svg width="24" height="24" viewBox="0 0 24 24" fill="none" xmlns="http://www.w3.org/2000/svg">
<path d="M13.4531 15.5953C13.4179 15.5604 13.3703 15.5408 13.3207 15.5408C13.2711 15.5408 13.2235 15.5604 13.1883 15.5953L10.4648 18.3187C9.2039 19.5797 7.07578 19.7133 5.68359 18.3187C4.28906 16.9242 4.42265 14.7984 5.68359 13.5375L8.40703 10.8141C8.47968 10.7414 8.47968 10.6219 8.40703 10.5492L7.47422 9.6164C7.43898 9.58151 7.39139 9.56193 7.34179 9.56193C7.2922 9.56193 7.24461 9.58151 7.20937 9.6164L4.48593 12.3398C2.50312 14.3227 2.50312 17.5312 4.48593 19.5117C6.46875 21.4922 9.67734 21.4945 11.6578 19.5117L14.3812 16.7883C14.4539 16.7156 14.4539 16.5961 14.3812 16.5234L13.4531 15.5953ZM19.5141 4.48593C17.5312 2.50312 14.3227 2.50312 12.3422 4.48593L9.6164 7.20937C9.58151 7.24461 9.56193 7.2922 9.56193 7.34179C9.56193 7.39139 9.58151 7.43898 9.6164 7.47422L10.5469 8.40469C10.6195 8.47734 10.7391 8.47734 10.8117 8.40469L13.5352 5.68125C14.7961 4.42031 16.9242 4.28672 18.3164 5.68125C19.7109 7.07578 19.5773 9.20156 18.3164 10.4625L15.593 13.1859C15.5581 13.2212 15.5385 13.2688 15.5385 13.3184C15.5385 13.368 15.5581 13.4155 15.593 13.4508L16.5258 14.3836C16.5984 14.4562 16.718 14.4562 16.7906 14.3836L19.5141 11.6602C21.4945 9.67734 21.4945 6.46875 19.5141 4.48593ZM14.2992 8.72578C14.264 8.69088 14.2164 8.67131 14.1668 8.67131C14.1172 8.67131 14.0696 8.69088 14.0344 8.72578L8.72578 14.032C8.69088 14.0673 8.67131 14.1149 8.67131 14.1645C8.67131 14.214 8.69088 14.2616 8.72578 14.2969L9.6539 15.225C9.72656 15.2977 9.84609 15.2977 9.91875 15.225L15.225 9.91875C15.2977 9.84609 15.2977 9.72656 15.225 9.6539L14.2992 8.72578Z" fill="#DEAF56"/>
</svg>
